<?xml version="1.0" encoding="UTF-8"?>
<!-- Uploaded to: ICON Repo, www.iconrepo.com, Generator: ICON Repo Mixer Tools -->
<svg width="800px" height="800px" viewBox="144 144 512 512" xmlns="http://www.w3.org/2000/svg">
  <defs>
    <linearGradient id="autismColors" x1="0%" y1="0%" x2="100%" y2="100%">
      <stop offset="0%" stop-color="#3FA9F5"/> <!-- azul -->
      <stop offset="33%" stop-color="#F15A24"/> <!-- vermelho -->
      <stop offset="66%" stop-color="#FFDE17"/> <!-- amarelo -->
      <stop offset="100%" stop-color="#8CC63F"/> <!-- verde -->
    </linearGradient>
  </defs>
<g fill="url(#autismColors)">
  <path d="m555.37 357.49h-72.852c-1.4883 0-2.8516-0.83984-3.5195-2.1758-0.66797-1.332-0.52344-2.9297 0.37109-4.1211 4.2227-5.625 6.4609-12.488 6.3789-19.52-0.16016-8.1953-3.3984-16.027-9.0703-21.945-5.6719-5.918-13.359-9.4883-21.543-9.9922-8.1875-0.41797-16.23 2.3008-22.484 7.6016-6.2578 5.3008-10.258 12.789-11.188 20.938-0.93359 8.1445 1.2734 16.34 6.1719 22.918 0.89453 1.1914 1.0391 2.7891 0.37109 4.1211-0.66406 1.3359-2.0273 2.1758-3.5195 2.1758h-66.688c-2.1758 0-3.9375-1.7617-3.9375-3.9336v-59.684c-12.113 5.9258-26.391 5.375-38.012-1.4648-11.621-6.8438-19.031-19.062-19.723-32.531-0.70703-14.188 6.1406-27.691 18.004-35.508 11.859-7.8203 26.969-8.7852 39.73-2.543v-65.859c0-2.1719 1.7617-3.9336 3.9375-3.9336h179.05c5.9492 0.011719 11.652 2.3828 15.855 6.5938 4.207 4.207 6.5703 9.9141 6.5781 15.863v179.07c0 2.1641-1.75 3.9258-3.918 3.9336zm-65.832-7.8711h61.898v-175.13c-0.003906-3.8672-1.543-7.5742-4.2773-10.309-2.7305-2.7344-6.4414-4.2734-10.305-4.2773h-175.12v68.918c0 1.4922-0.84375 2.8555-2.1758 3.5234-1.3359 0.66406-2.9297 0.51953-4.125-0.375-6.5781-4.8906-14.773-7.0977-22.918-6.1641-8.1445 0.9375-15.629 4.9375-20.93 11.195-5.3008 6.2539-8.0156 14.293-7.5977 22.484 0.50391 8.1797 4.0742 15.871 9.9922 21.539 5.918 5.6719 13.754 8.9102 21.949 9.0664h0.26953-0.003907c6.9375 0.027344 13.695-2.2109 19.242-6.375 1.1953-0.89453 2.7891-1.0391 4.125-0.375 1.332 0.66797 2.1758 2.0312 2.1758 3.5234v62.754h55.723c-6.25-12.762-5.2891-27.875 2.5234-39.742 7.8164-11.867 21.32-18.719 35.512-18.02 10.184 0.63281 19.754 5.0742 26.812 12.438 7.0586 7.3672 11.09 17.117 11.289 27.316 0.074219 6.2383-1.3164 12.406-4.0625 18.008z"/>
  <path d="m262.08 415.26c-13.84-0.019531-26.691-7.168-34.012-18.91-7.3203-11.742-8.0742-26.43-2-38.863h-65.84c-2.1719 0-3.9336-1.7617-3.9336-3.9336v-179.07c0.007812-5.9531 2.375-11.664 6.5859-15.871 4.2109-4.2109 9.918-6.582 15.871-6.5859h179.05c1.043 0 2.043 0.41406 2.7812 1.1523 0.73828 0.73828 1.1562 1.7383 1.1562 2.7812v72.855c0 1.4922-0.84375 2.8555-2.1758 3.5234-1.3359 0.66406-2.9297 0.51953-4.125-0.375-6.5781-4.8906-14.773-7.0977-22.918-6.1641-8.1445 0.9375-15.629 4.9375-20.93 11.195-5.3008 6.2539-8.0156 14.293-7.5977 22.484 0.50391 8.1797 4.0742 15.871 9.9922 21.539 5.918 5.6719 13.754 8.9102 21.949 9.0664h0.26953-0.003907c6.9375 0.027344 13.695-2.2109 19.242-6.375 1.1953-0.89453 2.7891-1.0391 4.125-0.375 1.332 0.66797 2.1758 2.0312 2.1758 3.5234v66.691c0 1.043-0.41797 2.043-1.1562 2.7812-0.73828 0.73828-1.7383 1.1523-2.7812 1.1523h-59.664c2.7539 5.6016 4.1484 11.766 4.0781 18.004-0.19531 10.199-4.2227 19.953-11.281 27.32-7.0586 7.3633-16.633 11.805-26.812 12.434-0.70312-0.003906-1.3672 0.015625-2.043 0.015625zm-97.914-65.645h68.922c1.4883 0 2.8516 0.84375 3.5195 2.1758 0.66406 1.332 0.52344 2.9297-0.37109 4.1211-4.8945 6.5781-7.0977 14.773-6.1641 22.914 0.93359 8.1445 4.9336 15.629 11.184 20.93 6.2539 5.3008 14.289 8.0195 22.477 7.6094 8.1797-0.50781 15.871-4.0703 21.543-9.9883 5.6719-5.918 8.9102-13.754 9.0703-21.949 0.089844-7.0312-2.1523-13.891-6.375-19.516-0.89453-1.1914-1.0391-2.7891-0.37109-4.1211 0.66406-1.332 2.0273-2.1758 3.5195-2.1758h62.738v-55.746c-12.113 5.9258-26.391 5.375-38.008-1.4688-11.621-6.8398-19.031-19.059-19.723-32.527-0.70703-14.188 6.1406-27.691 18.004-35.508 11.859-7.8203 26.969-8.7852 39.73-2.543v-61.922h-175.11c-3.8672 0.003906-7.5742 1.543-10.309 4.2773-2.7344 2.7344-4.2734 6.4414-4.2773 10.309z"/>
  <path d="m357.8 555.04h-179.05c-5.9531-0.007813-11.66-2.375-15.871-6.5859-4.2109-4.2109-6.5781-9.918-6.5859-15.875v-179.03c0-2.1758 1.7617-3.9375 3.9336-3.9375h72.859c1.4883 0 2.8516 0.84375 3.5195 2.1758 0.66406 1.332 0.52344 2.9297-0.37109 4.1211-4.2266 5.6211-6.4688 12.484-6.3789 19.516 0.16016 8.1953 3.3984 16.031 9.0703 21.949 5.6719 5.918 13.363 9.4805 21.547 9.9883 8.1875 0.41406 16.223-2.3047 22.477-7.6055 6.2539-5.3008 10.254-12.785 11.184-20.93 0.93359-8.1445-1.2695-16.34-6.1641-22.918-0.89453-1.1914-1.0391-2.7891-0.37109-4.1211 0.66406-1.332 2.0273-2.1758 3.5195-2.1758h66.676c1.043 0 2.043 0.41406 2.7812 1.1523s1.1562 1.7383 1.1562 2.7852v59.645c12.758-6.2422 27.871-5.2773 39.73 2.5391 11.863 7.8164 18.711 21.32 18.008 35.512-0.62891 10.184-5.0664 19.754-12.434 26.812-7.3672 7.0625-17.117 11.09-27.32 11.285-6.2344 0.054688-12.398-1.3398-18-4.0781v65.836c0 2.168-1.7539 3.9258-3.918 3.9375zm-193.63-197.55v175.11c0.003907 3.8672 1.543 7.5781 4.2773 10.312 2.7344 2.7344 6.4414 4.2695 10.309 4.2773h175.11v-68.941c0-1.4922 0.84375-2.8516 2.1758-3.5195 1.3359-0.66797 2.9297-0.52344 4.1211 0.37109 5.5508 4.168 12.309 6.4062 19.25 6.375h0.26953-0.003906c8.1953-0.15625 16.031-3.3945 21.949-9.0625 5.9141-5.6719 9.4805-13.363 9.9883-21.543 0.41797-8.1875-2.3008-16.227-7.6055-22.484-5.3008-6.2539-12.785-10.254-20.93-11.188-8.1484-0.92969-16.344 1.2773-22.922 6.1719-1.1914 0.89453-2.7852 1.0391-4.1211 0.37109-1.332-0.66797-2.1758-2.0312-2.1758-3.5195v-62.734h-55.723c6.2461 12.762 5.2773 27.871-2.5391 39.734-7.8164 11.863-21.32 18.711-35.508 18.008-10.184-0.62891-19.758-5.0703-26.816-12.434-7.0586-7.3672-11.086-17.121-11.281-27.32-0.070312-6.2305 1.3281-12.395 4.0781-17.988z"/>
  <path d="m621.25 647.97h-179.05c-2.1719 0-3.9336-1.7656-3.9336-3.9375v-72.855c0-1.4922 0.83984-2.8555 2.1758-3.5195 1.332-0.66797 2.9297-0.52344 4.1211 0.37109 5.5469 4.168 12.305 6.4062 19.242 6.3789h0.26953c8.1953-0.15625 16.031-3.3945 21.949-9.0664 5.918-5.6719 9.4844-13.363 9.9883-21.543 0.41797-8.1875-2.3008-16.227-7.6016-22.48-5.3008-6.2539-12.785-10.254-20.93-11.188-8.1484-0.93359-16.34 1.2734-22.918 6.168-1.1914 0.89453-2.7891 1.0391-4.1211 0.37109-1.3359-0.66797-2.1758-2.0312-2.1758-3.5195v-66.684c0-2.1758 1.7617-3.9375 3.9336-3.9375h59.66c-2.75-5.5977-4.1484-11.766-4.0781-18.004 0.19531-10.199 4.2227-19.953 11.281-27.316 7.0586-7.3672 16.633-11.809 26.816-12.438 14.188-0.70312 27.691 6.1445 35.508 18.008 7.8164 11.863 8.7852 26.973 2.5391 39.734h65.844c1.043 0 2.043 0.41406 2.7812 1.1523 0.73828 0.73828 1.1523 1.7383 1.1523 2.7852v179.05-0.003906c0 5.957-2.3672 11.668-6.5781 15.883s-9.9219 6.5859-15.879 6.5938zm-175.11-7.8711h175.11v-0.003906c3.8672-0.003906 7.5742-1.5391 10.309-4.2773 2.7344-2.7344 4.2734-6.4414 4.2773-10.309v-175.11h-68.918c-1.4922 0-2.8555-0.83984-3.5234-2.1758-0.66406-1.332-0.51953-2.9297 0.375-4.1211 4.8945-6.5781 7.0977-14.773 6.1641-22.918-0.92969-8.1445-4.9297-15.629-11.188-20.93-6.2539-5.3008-14.293-8.0195-22.48-7.6055-8.1797 0.50781-15.871 4.0742-21.543 9.9922-5.6719 5.9141-8.9062 13.75-9.0664 21.945-0.085938 7.0312 2.1562 13.895 6.375 19.516 0.89453 1.1914 1.0391 2.7891 0.375 4.1211-0.66797 1.3359-2.0312 2.1758-3.5234 2.1758h-62.742v55.727c12.762-6.2422 27.871-5.2734 39.73 2.543 11.863 7.8164 18.711 21.32 18.008 35.512-0.6875 13.469-8.0977 25.695-19.719 32.543-11.621 6.8438-25.902 7.3984-38.02 1.4727z"/>
 </g>
</svg>